<?xml version="1.0" standalone="no"?>
<!DOCTYPE svg PUBLIC "-//W3C//DTD SVG 20010904//EN"
 "http://www.w3.org/TR/2001/REC-SVG-20010904/DTD/svg10.dtd">
<svg version="1.0" xmlns="http://www.w3.org/2000/svg"
 width="640.000000pt" height="640.000000pt" viewBox="0 0 640.000000 640.000000"
 preserveAspectRatio="xMidYMid meet">
<metadata>
Created by potrace 1.11, written by Peter Selinger 2001-2013
</metadata>
<g transform="translate(0.000000,640.000000) scale(0.100000,-0.100000)"
fill="#000000" stroke="none">
<path d="M5698 5486 c-20 -7 -60 -30 -90 -52 -46 -33 -224 -178 -238 -193 -3
-3 -48 -44 -100 -91 -52 -47 -120 -108 -150 -137 -30 -28 -66 -61 -80 -73
-123 -106 -1085 -1049 -1224 -1200 -209 -228 -122 -428 158 -366 194 44 856
429 1281 746 324 242 505 421 586 582 146 288 133 683 -25 779 -36 22 -66 23
-118 5z"/>
<path d="M3105 4211 c-47 -22 -89 -64 -104 -104 -26 -69 -15 -114 110 -459
175 -479 243 -716 283 -983 8 -55 18 -118 21 -140 11 -68 14 -576 5 -660 -8
-70 -27 -191 -46 -290 -23 -131 -85 -342 -144 -495 -22 -58 -38 -114 -35 -126
6 -28 48 -47 78 -33 12 5 45 49 73 97 227 383 329 798 328 1327 0 143 -9 351
-18 405 -2 14 -7 54 -11 90 -16 153 -71 445 -150 797 -47 208 -93 402 -102
431 -40 132 -171 197 -288 143z"/>
<path d="M5855 3833 c-38 -8 -74 -15 -80 -17 -5 -2 -23 -6 -40 -11 -328 -85
-1104 -349 -1470 -500 -49 -21 -112 -46 -140 -57 -27 -11 -104 -46 -170 -78
-107 -51 -123 -62 -144 -100 -19 -34 -23 -52 -19 -103 6 -90 44 -165 125 -246
104 -103 179 -121 376 -86 320 56 820 242 1182 440 372 204 613 398 695 559
20 39 20 138 0 158 -54 53 -177 70 -315 41z"/>
<path d="M340 3729 c-91 -10 -134 -46 -145 -122 -26 -171 174 -442 427 -582
135 -73 266 -103 551 -125 100 -7 624 -4 702 4 22 3 87 7 145 11 111 6 133 8
330 31 156 18 191 23 260 34 30 5 70 12 88 15 87 15 212 48 259 70 72 33 138
96 150 144 25 97 -63 194 -207 229 -38 9 -334 56 -490 77 -56 8 -72 10 -245
34 -77 11 -165 23 -195 27 -30 3 -62 8 -70 9 -8 2 -35 5 -60 9 -25 3 -101 12
-170 21 -69 9 -138 18 -155 20 -16 3 -111 14 -210 25 -99 11 -196 22 -215 25
-19 2 -87 9 -150 15 -63 6 -133 13 -155 15 -39 5 -196 14 -325 18 -36 2 -90 0
-120 -4z"/>
<path d="M2955 2888 c-22 -5 -121 -29 -220 -53 -531 -127 -1431 -421 -1721
-560 -183 -89 -261 -202 -197 -289 37 -50 152 -97 283 -114 108 -14 484 -6
590 12 14 3 48 7 75 11 28 3 57 8 65 10 8 2 33 6 55 10 254 37 685 158 940
262 313 129 385 192 416 368 13 76 7 144 -21 218 -45 119 -128 159 -265 125z"/>
</g>
</svg>
