<?xml version="1.0" standalone="no"?>
<!DOCTYPE svg PUBLIC "-//W3C//DTD SVG 20010904//EN"
 "http://www.w3.org/TR/2001/REC-SVG-20010904/DTD/svg10.dtd">
<svg version="1.0" xmlns="http://www.w3.org/2000/svg"
 width="640.000000pt" height="640.000000pt" viewBox="0 0 640.000000 640.000000"
 preserveAspectRatio="xMidYMid meet">
<metadata>
Created by potrace 1.11, written by Peter Selinger 2001-2013
</metadata>
<g transform="translate(0.000000,640.000000) scale(0.100000,-0.100000)"
fill="#000000" stroke="none">
<path d="M5660 5470 c-156 -85 -746 -628 -1526 -1405 -327 -325 -375 -378
-403 -434 -44 -90 -44 -166 -1 -215 41 -47 86 -60 181 -53 93 6 201 49 423
169 584 316 1202 762 1408 1017 66 82 145 236 171 336 39 145 43 316 10 435
-44 164 -138 217 -263 150z"/>
<path d="M3089 4207 c-64 -34 -101 -98 -101 -174 0 -49 19 -110 125 -398 133
-361 178 -504 227 -706 69 -292 95 -544 87 -843 -10 -358 -70 -662 -194 -989
-47 -126 -50 -157 -12 -178 37 -19 65 -3 109 67 343 543 433 1290 265 2197
-36 197 -192 875 -211 919 -21 46 -70 97 -111 114 -51 22 -133 18 -184 -9z"/>
<path d="M5830 3831 c-388 -83 -1463 -461 -1892 -665 -120 -57 -141 -82 -146
-178 -4 -61 -1 -75 30 -141 43 -89 113 -163 191 -202 50 -24 70 -28 136 -27
153 2 452 78 741 189 608 233 1119 555 1264 797 29 49 36 70 36 114 0 45 -4
58 -28 82 -53 53 -174 64 -332 31z"/>
<path d="M324 3731 c-136 -24 -172 -150 -90 -317 102 -204 325 -392 546 -458
330 -99 1282 -79 1929 40 163 30 239 55 308 100 162 108 114 277 -97 338 -97
29 -1118 171 -1680 235 -479 54 -827 78 -916 62z"/>
<path d="M2843 2865 c-603 -143 -1504 -433 -1818 -585 -220 -107 -289 -222
-189 -316 81 -77 254 -108 549 -101 287 8 544 46 878 131 373 95 720 229 864
335 128 93 163 349 67 494 -57 87 -125 96 -351 42z"/>
</g>
</svg>
